<svg xmlns="http://www.w3.org/2000/svg" xmlns:xlink="http://www.w3.org/1999/xlink" viewBox="0 0 620.539 169.92975">
  <defs>
    <linearGradient id="3509442e-0397-412f-a63a-4c1574c40b25" x1="13.74232" y1="8.2792" x2="61.7424" y2="60.94578" gradientUnits="userSpaceOnUse">
      <stop offset="0.2672" stop-color="#001c3a"/>
      <stop offset="1" stop-color="#3992c4"/>
    </linearGradient>
    <linearGradient id="5c32b573-eb57-45f6-842d-5e72a253c061" x1="146.60945" y1="85.80731" x2="194.60953" y2="138.47389" xlink:href="#3509442e-0397-412f-a63a-4c1574c40b25"/>
    <linearGradient id="a3c8d575-2283-4b2a-8bff-51f6e722d1cb" x1="147.2632" y1="85.21148" x2="195.26329" y2="137.87806" xlink:href="#3509442e-0397-412f-a63a-4c1574c40b25"/>
    <linearGradient id="ac348294-6b4a-4356-82b5-4c61dc06c9df" x1="110.53191" y1="118.68821" x2="158.53199" y2="171.35479" xlink:href="#3509442e-0397-412f-a63a-4c1574c40b25"/>
    <linearGradient id="49781392-2e37-4e08-85d5-c4e98f18643c" x1="183.92075" y1="51.80195" x2="231.92084" y2="104.46853" xlink:href="#3509442e-0397-412f-a63a-4c1574c40b25"/>
    <linearGradient id="e16aab23-5669-4d94-98fa-528cdc5d030d" x1="4.11271" y1="17.05558" x2="52.11279" y2="69.72216" xlink:href="#3509442e-0397-412f-a63a-4c1574c40b25"/>
    <linearGradient id="fece1c91-1b2f-40ff-9584-1f4cd916db8f" x1="154.2837" y1="230.01875" x2="263.51504" y2="99.84191" gradientUnits="userSpaceOnUse">
      <stop offset="0.68889" stop-color="#001c3a"/>
      <stop offset="0.98938" stop-color="#3992c4"/>
    </linearGradient>
    <linearGradient id="e81f1991-a147-42be-8b7b-564901a8627c" x1="153.96985" y1="229.7554" x2="263.20119" y2="99.57856" xlink:href="#fece1c91-1b2f-40ff-9584-1f4cd916db8f"/>
    <linearGradient id="bc33cb8b-d051-4fc6-a8dd-5a6770359934" x1="309.10872" y1="209.07882" x2="247.38715" y2="173.44385" gradientUnits="userSpaceOnUse">
      <stop offset="0.30759" stop-color="#001c3a"/>
      <stop offset="0.84408" stop-color="#3992c4"/>
    </linearGradient>
    <linearGradient id="9898a513-1090-4623-a82a-ba491d29ce68" x1="309.89316" y1="207.72012" x2="248.17159" y2="172.08515" xlink:href="#bc33cb8b-d051-4fc6-a8dd-5a6770359934"/>
    <linearGradient id="5c5e32a0-6a9a-441c-93a1-baa30bd7d2b3" x1="192.04198" y1="261.70171" x2="301.27332" y2="131.52487" xlink:href="#fece1c91-1b2f-40ff-9584-1f4cd916db8f"/>
    <linearGradient id="d0911975-2498-43ba-a996-fa519d38eff4" x1="334.12965" y1="165.74128" x2="272.40808" y2="130.10632" xlink:href="#bc33cb8b-d051-4fc6-a8dd-5a6770359934"/>
    <linearGradient id="0a327186-07ec-474c-88c7-f0c8036433e3" x1="230.27245" y1="97.01282" x2="230.27245" y2="168.27081" gradientTransform="translate(492.3145 369.3291) rotate(180)" gradientUnits="userSpaceOnUse">
      <stop offset="0.33628" stop-color="#3992c4"/>
      <stop offset="1" stop-color="#001c3a"/>
    </linearGradient>
    <linearGradient id="c741a918-87f9-4060-b878-6bd87f29e4d8" x1="280.08815" y1="97.01282" x2="280.08815" y2="168.27081" xlink:href="#0a327186-07ec-474c-88c7-f0c8036433e3"/>
    <linearGradient id="0485370f-500b-4b42-ac70-ff665a5928d6" x1="280.1642" y1="97.01282" x2="280.1642" y2="168.27081" xlink:href="#0a327186-07ec-474c-88c7-f0c8036433e3"/>
    <linearGradient id="bcd400f3-b0fc-44ca-804e-25b88cdeb59e" x1="285.54291" y1="249.89599" x2="223.82134" y2="214.26103" xlink:href="#bc33cb8b-d051-4fc6-a8dd-5a6770359934"/>
    <linearGradient id="3a33bd85-728a-4819-ae09-85a1803b2c36" x1="230.29164" y1="97.01282" x2="230.29164" y2="168.27081" xlink:href="#0a327186-07ec-474c-88c7-f0c8036433e3"/>
    <linearGradient id="1f811175-4790-4b46-9bfe-666c9c288216" x1="127.36127" y1="153.85672" x2="152.69441" y2="223.85746" gradientUnits="userSpaceOnUse">
      <stop offset="0.43479" stop-color="#3992c4"/>
      <stop offset="1" stop-color="#001c3a"/>
    </linearGradient>
    <linearGradient id="d5104470-ea5a-470e-8ab5-a71446cd5eac" x1="148.82635" y1="146.08854" x2="174.1595" y2="216.08929" xlink:href="#1f811175-4790-4b46-9bfe-666c9c288216"/>
    <linearGradient id="c943e4e1-84af-4725-a0e5-85dc3842a40d" x1="110.53874" y1="118.68198" x2="158.53882" y2="171.34856" xlink:href="#3509442e-0397-412f-a63a-4c1574c40b25"/>
    <linearGradient id="d6c275d6-a02c-4446-b45e-07e6194a709a" x1="134.88247" y1="151.13481" x2="160.21561" y2="221.13555" xlink:href="#1f811175-4790-4b46-9bfe-666c9c288216"/>
    <linearGradient id="e9ac4e36-ac40-44e5-be1a-bde7451a3124" x1="329.86214" y1="97.01282" x2="329.86214" y2="168.27081" xlink:href="#0a327186-07ec-474c-88c7-f0c8036433e3"/>
    <linearGradient id="a63027d1-b32b-432c-9796-39b719d3dc5b" x1="131.99601" y1="152.17941" x2="157.32916" y2="222.18016" xlink:href="#1f811175-4790-4b46-9bfe-666c9c288216"/>
    <linearGradient id="0aef27e4-1382-4509-a379-c0e2f6b0c982" x1="147.08671" y1="85.37233" x2="195.0868" y2="138.03891" xlink:href="#3509442e-0397-412f-a63a-4c1574c40b25"/>
    <linearGradient id="55608192-0205-4948-be77-92e3900962ef" x1="166.14061" y1="99.12506" x2="235.09981" y2="247.00855" gradientUnits="userSpaceOnUse">
      <stop offset="0" stop-color="#f2b3b3"/>
      <stop offset="0.04118" stop-color="#f2b3b3" stop-opacity="0.87871"/>
      <stop offset="0.1309" stop-color="#f2b3b3" stop-opacity="0.56834"/>
      <stop offset="0.26154" stop-color="#f2b3b3" stop-opacity="0.07707"/>
      <stop offset="0.28137" stop-color="#f2b3b3" stop-opacity="0"/>
    </linearGradient>
    <linearGradient id="dccfd573-e5f9-44fe-a3e6-debaea446d2b" x1="153.97849" y1="229.76265" x2="263.20983" y2="99.58581" xlink:href="#fece1c91-1b2f-40ff-9584-1f4cd916db8f"/>
    <linearGradient id="42b8a582-c327-4242-b3d9-4f4edd29230d" x1="230.13139" y1="69.26294" x2="299.09059" y2="217.14643" xlink:href="#55608192-0205-4948-be77-92e3900962ef"/>
    <linearGradient id="9c9f8ee0-0127-476e-9911-960e09e21a08" x1="309.72704" y1="208.00784" x2="248.00547" y2="172.37288" xlink:href="#bc33cb8b-d051-4fc6-a8dd-5a6770359934"/>
    <linearGradient id="4ffe5dbd-0258-422a-9a76-5a3f15ad4577" x1="221.82509" y1="73.13623" x2="290.78429" y2="221.01972" xlink:href="#55608192-0205-4948-be77-92e3900962ef"/>
    <linearGradient id="aeca3d9a-229e-44bb-8f83-42b7e82d4d1d" x1="280.16622" y1="97.01282" x2="280.16622" y2="168.27081" xlink:href="#0a327186-07ec-474c-88c7-f0c8036433e3"/>
    <linearGradient id="f4ebc0e3-2d44-40fe-9a34-438cec4d98c2" x1="152.14193" y1="105.63002" x2="221.10114" y2="253.51351" xlink:href="#55608192-0205-4948-be77-92e3900962ef"/>
    <linearGradient id="6df6d6b6-8251-4357-8b14-996030547529" x1="131.61467" y1="152.31742" x2="156.94782" y2="222.31816" xlink:href="#1f811175-4790-4b46-9bfe-666c9c288216"/>
    <linearGradient id="7ac6d948-d1f6-4206-af06-325cb0b7eab0" x1="115.52755" y1="122.70359" x2="184.48675" y2="270.58707" xlink:href="#55608192-0205-4948-be77-92e3900962ef"/>
    <linearGradient id="8c5cca52-a23e-4f05-9d41-dcd82987936b" x1="143.24045" y1="168.23465" x2="508.74045" y2="-197.26535" gradientUnits="userSpaceOnUse">
      <stop offset="0.15662" stop-color="#3992c4"/>
      <stop offset="0.31184" stop-color="#2d79a7"/>
      <stop offset="0.6475" stop-color="#0e395d"/>
      <stop offset="0.65835" stop-color="#0d375a"/>
    </linearGradient>
    <linearGradient id="0a9596fe-cae3-4041-b884-b198c0b3e21d" x1="452.38839" y1="432.88839" x2="817.88839" y2="67.38839" xlink:href="#8c5cca52-a23e-4f05-9d41-dcd82987936b"/>
    <linearGradient id="b55e9957-e02d-42cd-84c5-61bc64b3bc79" x1="416.18137" y1="396.68137" x2="781.68137" y2="31.18137" xlink:href="#8c5cca52-a23e-4f05-9d41-dcd82987936b"/>
    <linearGradient id="b9522769-a57f-4536-9db8-2d7e509c3858" x1="178.75084" y1="203.74504" x2="544.25084" y2="-161.75496" xlink:href="#8c5cca52-a23e-4f05-9d41-dcd82987936b"/>
    <linearGradient id="6943ebb1-4ea8-47d6-95a3-02a5c8063712" x1="379.97385" y1="360.47385" x2="745.47385" y2="-5.02615" xlink:href="#8c5cca52-a23e-4f05-9d41-dcd82987936b"/>
    <linearGradient id="a1c1d228-a867-49d6-b06b-ef2f2df99597" x1="226.57239" y1="251.56659" x2="592.07239" y2="-113.93341" xlink:href="#8c5cca52-a23e-4f05-9d41-dcd82987936b"/>
  </defs>
  <title>TV1000 RGB</title>
  <g style="isolation: isolate">
    <g id="f0c43ef2-bf47-414e-919b-ca25b5c27218" data-name="CIRCLE">
      <g id="6958641b-9e5d-4938-afb7-56b24b4712fd" data-name="VIASAT">
        <g>
          <polygon points="53.679 49.499 52.163 53.034 55.207 53.034 53.679 49.499" style="fill: url(#3509442e-0397-412f-a63a-4c1574c40b25)"/>
          <path d="M148.71021,133.33667l1.51489,3.862,2.65088-6.79388h1.68023l-3.66223,8.90228h-1.3764l-1.725-4.17884q-1.55245,3.065-2.81445,6.29114H193.0874l14.82916-45.7467A72.12177,72.12177,0,0,0,148.71021,133.33667Zm8.7376,5.90741h-1.55334v-8.83929h1.55334Zm27.06049-8.83929h7.17291v1.43988h-2.80328v7.39941H187.3125v-7.39941h-2.8042Zm-4.33111-.063h1.43951l3.88959,8.90228h-1.6416l-.89692-2.13367h-4.1792l-.90966,2.13367h-1.59082Zm-6.49018,5.73291a4.9951,4.9951,0,0,0-1.59131-.56842,11.70075,11.70075,0,0,1-1.26269-.37842,3.61584,3.61584,0,0,1-.90918-.4931,1.76489,1.76489,0,0,1-.58692-.73829,2.63486,2.63486,0,0,1-.18359-1.02929v-.02539a2.30658,2.30658,0,0,1,.84619-1.84961,3.25376,3.25376,0,0,1,2.17237-.71289,4.98761,4.98761,0,0,1,3.207,1.11029l-.833,1.17492a4.04149,4.04149,0,0,0-2.39942-.90972,1.691,1.691,0,0,0-1.0484.2973.90532.90532,0,0,0-.39111.751v.02539a.91052.91052,0,0,0,.42291.80182,5.88071,5.88071,0,0,0,1.68555.58692,5.19191,5.19191,0,0,1,2.147.94092,2.06031,2.06031,0,0,1,.68207,1.64794v.02533a2.35551,2.35551,0,0,1-.87158,1.93219,3.51381,3.51381,0,0,1-2.28559.70752,5.35328,5.35328,0,0,1-3.6875-1.415l.93458-1.11138a4.21377,4.21377,0,0,0,2.79052,1.14941,1.89529,1.89529,0,0,0,1.14313-.30951.95131.95131,0,0,0,.42279-.80176v-.02545A.91616.91616,0,0,0,173.687,136.07471Zm-9.69824-5.73291,3.88916,8.90228h-1.6416l-.89655-2.13367h-4.17956l-.90869,2.13367h-1.5918l3.8891-8.90228Z" transform="translate(-127.19336 -82.69916)" style="fill: url(#5c32b573-eb57-45f6-842d-5e72a253c061)"/>
          <path d="M134.93146,141.41937a81.57142,81.57142,0,0,1,76.0794-55.29229l1.11091-3.427a84.98678,84.98678,0,0,0-80.77839,58.7193Z" transform="translate(-127.19336 -82.69916)" style="fill: url(#a3c8d575-2283-4b2a-8bff-51f6e722d1cb)"/>
          <path d="M131.2948,141.56287l.00061.00018.00848-.02509.19983.06769-.17944-.12976C131.31482,141.50507,131.3042,141.53369,131.2948,141.56287Z" transform="translate(-127.19336 -82.69916)" style="fill: url(#ac348294-6b4a-4356-82b5-4c61dc06c9df)"/>
          <path d="M212.19916,82.93774l-.01972-.238-.02221-.00055-.03485.00085Z" transform="translate(-127.19336 -82.69916)" style="fill: url(#49781392-2e37-4e08-85d5-c4e98f18643c)"/>
          <polygon points="36.05 49.499 34.535 53.034 37.578 53.034 36.05 49.499" style="fill: url(#e16aab23-5669-4d94-98fa-528cdc5d030d)"/>
          <path d="M216.30975,95.666l14.77613,45.75342h48.25085A72.14515,72.14515,0,0,0,216.30975,95.666Z" transform="translate(-127.19336 -82.69916)" style="fill: url(#fece1c91-1b2f-40ff-9584-1f4cd916db8f)"/>
          <path d="M289.38342,141.41937h3.49l-.4168.30249.57476-.12408a84.98758,84.98758,0,0,0-80.75775-58.89569l.05.6214.90485,2.80169A81.57258,81.57258,0,0,1,289.38342,141.41937Z" transform="translate(-127.19336 -82.69916)" style="fill: url(#e81f1991-a147-42be-8b7b-564901a8627c)"/>
          <path d="M284.2832,167.66406a72.22524,72.22524,0,0,0-2.35028-18.3056L242.84808,177.7207l14.96613,45.77362A71.97685,71.97685,0,0,0,284.2832,167.66406Z" transform="translate(-127.19336 -82.69916)" style="fill: url(#bc33cb8b-d051-4fc6-a8dd-5a6770359934)"/>
          <path d="M290.0694,143.45416a81.68085,81.68085,0,0,1-29.13318,89.58863l1.05615,3.23028.061.08722.03254.03436a84.98207,84.98207,0,0,0,30.99231-94.65875l-.90931.19476Z" transform="translate(-127.19336 -82.69916)" style="fill: url(#9898a513-1090-4623-a82a-ba491d29ce68)"/>
          <path d="M292.16888,141.93066l.90931-.19476c-.01484-.04639-.03186-.0918-.04676-.13812l-.57476.12408Z" transform="translate(-127.19336 -82.69916)" style="fill: url(#5c5e32a0-6a9a-441c-93a1-baa30bd7d2b3)"/>
          <path d="M292.16888,141.93066l.90931-.19476c-.01484-.04639-.03186-.0918-.04676-.13812l-.57476.12408Z" transform="translate(-127.19336 -82.69916)" style="fill: url(#d0911975-2498-43ba-a996-fa519d38eff4)"/>
          <path d="M262.04236,236.4259l.038-.027-.027-.03857-.04956-.05237Z" transform="translate(-127.19336 -82.69916)" style="fill: url(#0a327186-07ec-474c-88c7-f0c8036433e3)"/>
          <path d="M259.13947,234.32043a81.47638,81.47638,0,0,1-93.98237-.01275l-2.59051,1.89331-.14343.33172a84.88752,84.88752,0,0,0,99.60638-.09771Z" transform="translate(-127.19336 -82.69916)" style="fill: url(#c741a918-87f9-4060-b878-6bd87f29e4d8)"/>
          <path d="M251.04236,228.396,212.166,199.95117,173.25824,228.387a72.04975,72.04975,0,0,0,77.78412.009Z" transform="translate(-127.19336 -82.69916)" style="fill: url(#0485370f-500b-4b42-ac70-ff665a5928d6)"/>
          <path d="M262.00378,236.30792l.04956.05237-.061-.08722Z" transform="translate(-127.19336 -82.69916)" style="fill: url(#bcd400f3-b0fc-44ca-804e-25b88cdeb59e)"/>
          <path d="M262.00378,236.30792l.04956.05237-.061-.08722Z" transform="translate(-127.19336 -82.69916)" style="fill: url(#3a33bd85-728a-4819-ae09-85a1803b2c36)"/>
          <path d="M162.30573,236.3916l1.09069-3.33594a81.66683,81.66683,0,0,1-29.18255-89.49041l-2.63806-1.90747-.2804-.09473a84.96813,84.96813,0,0,0,31.04272,94.90924l.06635-.15283Z" transform="translate(-127.19336 -82.69916)" style="fill: url(#1f811175-4790-4b46-9bfe-666c9c288216)"/>
          <path d="M166.51807,223.50806l14.96331-45.76587-39.126-28.29022a72.20222,72.20222,0,0,0,24.16266,74.05609Z" transform="translate(-127.19336 -82.69916)" style="fill: url(#d5104470-ea5a-470e-8ab5-a71446cd5eac)"/>
          <path d="M131.50372,141.60565l-.19983-.06769-.00848.02509.2804.09473Z" transform="translate(-127.19336 -82.69916)" style="fill: url(#c943e4e1-84af-4725-a0e5-85dc3842a40d)"/>
          <path d="M131.50372,141.60565l-.19983-.06769-.00848.02509.2804.09473Z" transform="translate(-127.19336 -82.69916)" style="fill: url(#d6c275d6-a02c-4446-b45e-07e6194a709a)"/>
          <path d="M162.40448,236.31946l-.06635.15283c.02814.02045.05683.04.085.06042l.14343-.33172Z" transform="translate(-127.19336 -82.69916)" style="fill: url(#e9ac4e36-ac40-44e5-be1a-bde7451a3124)"/>
          <path d="M162.40448,236.31946l-.06635.15283c.02814.02045.05683.04.085.06042l.14343-.33172Z" transform="translate(-127.19336 -82.69916)" style="fill: url(#a63027d1-b32b-432c-9796-39b719d3dc5b)"/>
          <path d="M134.93146,141.41937h10.04669q1.26059-3.22411,2.81445-6.29114l-1.94983-4.72344h1.71735l1.15009,2.93188a72.12177,72.12177,0,0,1,59.20635-37.664l3.0943-9.54559A81.57142,81.57142,0,0,0,134.93146,141.41937Z" transform="translate(-127.19336 -82.69916)" style="fill: url(#0aef27e4-1382-4509-a379-c0e2f6b0c982)"/>
          <path d="M134.93146,141.41937h10.04669q1.26059-3.22411,2.81445-6.29114l-1.94983-4.72344h1.71735l1.15009,2.93188a72.12177,72.12177,0,0,1,59.20635-37.664l3.0943-9.54559A81.57142,81.57142,0,0,0,134.93146,141.41937Z" transform="translate(-127.19336 -82.69916)" style="mix-blend-mode: overlay;fill: url(#55608192-0205-4948-be77-92e3900962ef)"/>
          <path d="M213.22852,86.12518l3.08123,9.54077a72.14515,72.14515,0,0,1,63.027,45.75342h10.04669A81.57258,81.57258,0,0,0,213.22852,86.12518Z" transform="translate(-127.19336 -82.69916)" style="fill: url(#dccfd573-e5f9-44fe-a3e6-debaea446d2b)"/>
          <path d="M213.22852,86.12518l3.08123,9.54077a72.14515,72.14515,0,0,1,63.027,45.75342h10.04669A81.57258,81.57258,0,0,0,213.22852,86.12518Z" transform="translate(-127.19336 -82.69916)" style="mix-blend-mode: overlay;fill: url(#42b8a582-c327-4242-b3d9-4f4edd29230d)"/>
          <path d="M293.72357,167.66406a81.54,81.54,0,0,0-3.65417-24.2099l-8.13648,5.9043a72.18931,72.18931,0,0,1-24.11871,74.13586l3.122,9.54847A81.44435,81.44435,0,0,0,293.72357,167.66406Z" transform="translate(-127.19336 -82.69916)" style="fill: url(#9c9f8ee0-0127-476e-9911-960e09e21a08)"/>
          <path d="M293.72357,167.66406a81.54,81.54,0,0,0-3.65417-24.2099l-8.13648,5.9043a72.18931,72.18931,0,0,1-24.11871,74.13586l3.122,9.54847A81.44435,81.44435,0,0,0,293.72357,167.66406Z" transform="translate(-127.19336 -82.69916)" style="mix-blend-mode: overlay;fill: url(#4ffe5dbd-0258-422a-9a76-5a3f15ad4577)"/>
          <path d="M259.13947,234.32043l-8.09711-5.92443a72.04975,72.04975,0,0,1-77.78412-.009l-8.10114,5.92072a81.47638,81.47638,0,0,0,93.98237.01275Z" transform="translate(-127.19336 -82.69916)" style="fill: url(#aeca3d9a-229e-44bb-8f83-42b7e82d4d1d)"/>
          <path d="M259.13947,234.32043l-8.09711-5.92443a72.04975,72.04975,0,0,1-77.78412-.009l-8.10114,5.92072a81.47638,81.47638,0,0,0,93.98237.01275Z" transform="translate(-127.19336 -82.69916)" style="mix-blend-mode: overlay;fill: url(#f4ebc0e3-2d44-40fe-9a34-438cec4d98c2)"/>
          <path d="M163.39642,233.05566l3.12165-9.5476A72.20222,72.20222,0,0,1,142.35541,149.452l-8.14154-5.88672a81.66683,81.66683,0,0,0,29.18255,89.49041Z" transform="translate(-127.19336 -82.69916)" style="fill: url(#6df6d6b6-8251-4357-8b14-996030547529)"/>
          <path d="M163.39642,233.05566l3.12165-9.5476A72.20222,72.20222,0,0,1,142.35541,149.452l-8.14154-5.88672a81.66683,81.66683,0,0,0,29.18255,89.49041Z" transform="translate(-127.19336 -82.69916)" style="mix-blend-mode: overlay;fill: url(#7ac6d948-d1f6-4206-af06-325cb0b7eab0)"/>
          <polygon points="4.31 58.906 4.382 58.959 7.021 60.866 15.162 66.753 54.288 95.043 39.325 140.809 36.203 150.357 35.112 153.692 35.211 153.62 35.373 153.502 37.964 151.609 46.065 145.688 84.973 117.252 123.849 145.697 131.946 151.621 134.836 153.736 134.857 153.751 134.849 153.727 134.81 153.609 134.799 153.574 133.743 150.344 130.621 140.795 115.655 95.022 154.74 66.659 162.876 60.755 164.976 59.232 165.263 59.023 165.68 58.72 162.19 58.72 152.143 58.72 103.893 58.72 89.116 12.967 86.035 3.426 85.13 0.624 85.006 0.239 84.929 0.001 84.929 0 84.928 0.001 83.818 3.428 80.723 12.974 65.894 58.72 17.785 58.72 7.738 58.72 4.15 58.72 4.053 58.72 4.131 58.777 4.31 58.906" style="fill: #fff"/>
          <polygon points="23.701 56.608 27.363 47.706 25.683 47.706 23.032 54.5 21.517 50.638 20.367 47.706 18.649 47.706 20.599 52.429 22.324 56.608 23.701 56.608" style="fill: #fff"/>
          <rect x="28.70111" y="47.70563" width="1.55334" height="8.83929" style="fill: #fff"/>
          <path d="M160.25153,139.24408l.90869-2.13367h4.17956l.89655,2.13367h1.6416l-3.88916-8.90228h-1.43994l-3.8891,8.90228Zm2.99218-7.0459,1.52777,3.53522H161.728Z" transform="translate(-127.19336 -82.69916)" style="fill: #fff"/>
          <path d="M173.668,137.68457a1.89529,1.89529,0,0,1-1.14313.30951,4.21377,4.21377,0,0,1-2.79052-1.14941l-.93458,1.11138a5.35328,5.35328,0,0,0,3.6875,1.415,3.51381,3.51381,0,0,0,2.28559-.70752,2.35551,2.35551,0,0,0,.87158-1.93219v-.02533a2.06031,2.06031,0,0,0-.68207-1.64794,5.19191,5.19191,0,0,0-2.147-.94092,5.88071,5.88071,0,0,1-1.68555-.58692.91052.91052,0,0,1-.42291-.80182v-.02539a.90532.90532,0,0,1,.39111-.751,1.691,1.691,0,0,1,1.0484-.2973,4.04149,4.04149,0,0,1,2.39942.90972l.833-1.17492a4.98761,4.98761,0,0,0-3.207-1.11029,3.25376,3.25376,0,0,0-2.17237.71289,2.30658,2.30658,0,0,0-.84619,1.84961v.02539a2.63486,2.63486,0,0,0,.18359,1.02929,1.76489,1.76489,0,0,0,.58692.73829,3.61584,3.61584,0,0,0,.90918.4931,11.70075,11.70075,0,0,0,1.26269.37842,4.9951,4.9951,0,0,1,1.59131.56842.91616.91616,0,0,1,.40381.78265v.02545A.95131.95131,0,0,1,173.668,137.68457Z" transform="translate(-127.19336 -82.69916)" style="fill: #fff"/>
          <path d="M178.78857,137.11041h4.1792l.89692,2.13367h1.6416l-3.88959-8.90228h-1.43951l-3.8891,8.90228h1.59082Zm2.0835-4.91223,1.52783,3.53522h-3.04352Z" transform="translate(-127.19336 -82.69916)" style="fill: #fff"/>
          <polygon points="60.119 56.545 61.685 56.545 61.685 49.146 64.488 49.146 64.488 47.706 57.315 47.706 57.315 49.146 60.119 49.146 60.119 56.545" style="fill: #fff"/>
        </g>
      </g>
    </g>
    <g id="0683ebad-0d34-4eb1-96f1-8a45c555f347" data-name="TITLE">
      <g>
        <path d="M568.36719,197.03607q7.6875,0,12.31048-6.90716,4.62168-6.90675,4.62311-17.7143v-.22272q0-10.69564-4.7901-17.76953-4.7914-7.07382-12.36621-7.0747-7.57755,0-12.25488,6.90771-4.68018,6.90885-4.67957,17.71344v.22308q0,10.80688,4.73529,17.82471Q560.67968,197.03614,568.36719,197.03607Z" transform="translate(-127.19336 -82.69916)" style="fill: none"/>
        <path d="M712.97357,147.34766q-7.57754,0-12.25476,6.90771-4.68036,6.90885-4.67975,17.71344v.22308q0,10.80688,4.73535,17.82471,4.73438,7.01953,12.42188,7.01947t12.31048-6.90716q4.62168-6.90675,4.62311-17.7143v-.22272q0-10.69564-4.7901-17.76953Q720.54837,147.34854,712.97357,147.34766Z" transform="translate(-127.19336 -82.69916)" style="fill: none"/>
        <path d="M640.78217,197.03607q7.6875,0,12.3106-6.90716,4.6215-6.90675,4.623-17.7143v-.22272q0-10.69564-4.79-17.76953-4.7916-7.07382-12.36621-7.0747-7.57764,0-12.25488,6.90771-4.68018,6.90885-4.67969,17.71344v.22308q0,10.80688,4.73541,17.82471Q633.0947,197.03614,640.78217,197.03607Z" transform="translate(-127.19336 -82.69916)" style="fill: none"/>
        <polygon points="242.426 128.485 242.426 66.32 266.155 66.32 266.155 50.5 201.539 50.5 201.539 66.32 225.269 66.32 225.269 128.485 242.426 128.485" style="fill: url(#8c5cca52-a23e-4f05-9d41-dcd82987936b)"/>
        <path d="M713.19629,131.8623q-15.375,0-25.06641,11.53077-9.69277,11.53052-9.69342,28.79882v.22272q0,17.26959,9.58112,28.68787,9.58154,11.41992,24.956,11.419,15.37364,0,25.06641-11.53027,9.693-11.53125,9.69238-28.79932v-.22308q0-17.155-9.63666-28.63141Q728.4585,131.864,713.19629,131.8623Zm16.93359,40.55231q0,10.8067-4.62311,17.7143-4.6245,6.9082-12.31048,6.90716-7.6875,0-12.42188-7.01947-4.7373-7.01807-4.73535-17.82471v-.22308q0-10.80488,4.67975-17.71344,4.67862-6.90673,12.25476-6.90771,7.57471,0,12.36621,7.0747,4.78858,7.07584,4.7901,17.76953Z" transform="translate(-127.19336 -82.69916)" style="fill: url(#0a9596fe-cae3-4041-b884-b198c0b3e21d)"/>
        <path d="M640.55957,212.52148q15.37353,0,25.06641-11.53027,9.69286-11.53125,9.69238-28.79932v-.22308q0-17.155-9.63678-28.63141-9.63722-11.47338-24.89941-11.4751-15.375,0-25.06641,11.53077-9.69277,11.53052-9.6933,28.79882v.22272q0,17.26959,9.58106,28.68787Q625.18506,212.5224,640.55957,212.52148ZM623.625,171.96881q0-10.80488,4.67969-17.71344,4.67862-6.90673,12.25488-6.90771,7.57471,0,12.36621,7.0747,4.78857,7.07584,4.79,17.76953v.22272q0,10.8067-4.623,17.7143-4.6245,6.9082-12.3106,6.90716-7.6875,0-12.42176-7.01947-4.73748-7.01807-4.73541-17.82471Z" transform="translate(-127.19336 -82.69916)" style="fill: url(#b55e9957-e02d-42cd-84c5-61bc64b3bc79)"/>
        <polygon points="347.594 50.5 329.1 50.5 308.713 105.424 288.324 50.5 269.385 50.5 300.914 129.042 316.064 129.042 347.594 50.5" style="fill: url(#b9522769-a57f-4536-9db8-2d7e509c3858)"/>
        <path d="M568.14447,212.52148q15.37373,0,25.06641-11.53027,9.693-11.53125,9.69238-28.79932v-.22308q0-17.155-9.63666-28.63141-9.6372-11.47338-24.89941-11.4751-15.375,0-25.06641,11.53077-9.69286,11.53052-9.69342,28.79882v.22272q0,17.26959,9.58112,28.68787Q552.77,212.5224,568.14447,212.52148ZM551.21,171.96881q0-10.80488,4.67957-17.71344,4.6788-6.90673,12.25488-6.90771,7.5747,0,12.36621,7.0747,4.78857,7.07584,4.7901,17.76953v.22272q0,10.8067-4.62311,17.7143-4.6245,6.9082-12.31048,6.90716-7.6875,0-12.42188-7.01947-4.7373-7.01807-4.73529-17.82471Z" transform="translate(-127.19336 -82.69916)" style="fill: url(#6943ebb1-4ea8-47d6-95a3-02a5c8063712)"/>
        <polygon points="402.628 128.485 402.628 49.943 390.93 49.943 368.537 56.628 372.103 70.665 385.694 67.322 385.694 128.485 402.628 128.485" style="fill: url(#a1c1d228-a867-49d6-b06b-ef2f2df99597)"/>
      </g>
    </g>
  </g>
</svg>
